<?xml version="1.0" encoding="UTF-8"?>
<svg id="Layer_1" data-name="Layer 1" xmlns="http://www.w3.org/2000/svg" viewBox="0 0 746.62 145.83">
  <defs>
    <style>
      .cls-1 {
        fill: #3d3d3d;
        stroke-width: 0px;
      }
    </style>
  </defs>
  <path class="cls-1" d="m87.22.48c4.36-1.59,9.1.95,11.51,4.61,4.49,6.62,4.49,16.04,0,22.65-2.51,3.88-7.68,6.38-12.14,4.37-6.14-2.7-8.74-9.95-8.59-16.25.15-6.15,3.03-13.17,9.23-15.38Z"/>
  <path class="cls-1" d="m0,6.29c17.83-2.28,37.11-.11,52.23,10.27,14.91,9.97,24.43,26.35,29.01,43.41,1.08,4.76,2.17,9.53,2.92,14.35,8.71-16.84,22.78-30.91,39.73-39.43,14.59-7.32,31.03-11.38,47.39-10.65-10.86,1.78-21.18,6.09-30.83,11.27-18.11,9.61-33.88,24.18-43.42,42.46-7.52,14.29-10.23,31.16-7.06,47.03,1.58,7.74,4.96,15.29,10.72,20.83-8.39-1.78-15.88-7.19-19.93-14.78-7.17-13.12-7.22-28.58-7.25-43.14.87-18.98-3.49-38.59-14.36-54.36-8.1-11.87-21.02-20.34-35.22-22.76-5.49-1.14-11.12-.89-16.69-.81,4.7,13.81,13.43,26.69,26.06,34.35,5.91,3.69,12.61,5.95,19.47,7.04-5.62-12.4-14.42-23.5-25.92-30.9,17.98,3.98,29.44,20.74,34.99,37.23-13.6-.15-27.37-4.28-38-12.96C11.73,35.14,4.12,20.99,0,6.29Z"/>
  <path class="cls-1" d="m352.29,65.19c9.36-4.5,22.23-2.58,28.51,6.15-1.9,1.34-3.82,2.66-5.73,3.98-4.15-6.25-12.95-7.8-19.56-4.93-3.35,1.44-5.35,5.97-3.43,9.24,2.15,2.53,5.69,3.06,8.74,3.83,5.4,1.04,11.46,1.86,15.42,6.07,4.5,5.6,2.62,14.55-2.79,18.89-5.18,4.14-12.22,4.94-18.62,4.31-6.14-.58-12.1-3.59-15.7-8.68,1.78-1.42,3.58-2.83,5.38-4.24,5.14,7,15.54,9.09,23.03,4.8,4.12-2.14,5.64-8.99,1.41-11.76-5.19-3.21-11.63-2.62-17.14-4.96-3.33-1.28-6.51-3.8-7.3-7.45-1.51-6.14,2.17-12.65,7.78-15.25Z"/>
  <path class="cls-1" d="m144.04,63.98c8.27.37,16.93-1.17,24.85,1.89,6.51,2.47,10.82,9.14,11.07,16.01.63,9.9-2.71,21.17-11.65,26.54-8.69,5.3-19.28,2.88-28.9,3.41,1.56-15.95,3.09-31.9,4.63-47.85Zm6.38,6.3c-1.14,11.76-2.28,23.51-3.41,35.27,6.03-.29,12.73,1.13,18.07-2.45,5.47-3.8,7.32-10.82,7.66-17.15.29-4.7-.86-10.1-4.97-12.95-4.98-3.72-11.56-2.53-17.35-2.72Z"/>
  <path class="cls-1" d="m188.44,64.06c6.71-.18,13.41-.04,20.12-.09-.2,2.01-.39,4.01-.58,6.02-2.2,0-4.39.01-6.58.02-1.14,11.94-2.3,23.87-3.45,35.81,2.19,0,4.38,0,6.57.01-.2,2-.39,4-.58,6.01h-20.05c.19-2.01.39-4.01.59-6.02h6.49c1.15-11.94,2.31-23.88,3.46-35.81-2.16,0-4.32-.02-6.48-.02.17-1.98.34-3.95.49-5.93Z"/>
  <path class="cls-1" d="m235.47,64.1c11.71-.29,23.43-.04,35.14-.12-.2,2.05-.39,4.1-.59,6.15-8.27.01-16.55.01-24.82,0,.27,4.74.58,9.48.87,14.22,7.18.01,14.36,0,21.54,0-.3,2.01-.04,4.27-.87,6.1-6.74.18-13.49,0-20.23.07.29,5.05.62,10.1.92,15.16,7.57.02,15.14,0,22.71.01-.2,2.05-.39,4.1-.58,6.15-9.7,0-19.39.01-29.09,0-.14-2.78-.28-5.55-.42-8.33-6.96,0-13.93-.01-20.89,0-1.58,2.74-3.19,5.46-4.69,8.24-2.55.1-5.1.11-7.65.09,9.51-15.94,19.26-31.73,28.65-47.74Zm2.9,6.4c-5.25,8.99-10.5,17.97-15.72,26.98h17.09c-.45-8.99-.9-17.99-1.37-26.98Z"/>
  <path class="cls-1" d="m278.55,63.98c11.67-.02,23.34.02,35.02-.02-.2,2.06-.39,4.12-.58,6.17-4.68.01-9.35.01-14.03,0-1.35,13.9-2.68,27.8-4.03,41.71-2.32,0-4.64,0-6.96.02,1.29-13.91,2.68-27.81,4.01-41.72-4.68-.01-9.35,0-14.02-.01.19-2.05.39-4.1.59-6.15Z"/>
  <path class="cls-1" d="m318.49,63.99c6.69-.03,13.37-.01,20.06-.01-.2,2-.39,4.01-.58,6.01-2.2,0-4.39.01-6.57.02-1.15,11.94-2.31,23.87-3.46,35.81h6.56c-.19,2.01-.38,4.01-.57,6.02h-20.04c.3-1.96.01-4.15.84-5.96,2.07-.15,4.15-.07,6.23-.06,1.16-11.94,2.3-23.88,3.47-35.81-2.17,0-4.34-.02-6.5-.02.18-2,.37-4,.56-6Z"/>
  <path class="cls-1" d="m386.02,63.98c11.68-.01,23.36-.01,35.04,0-.2,2.05-.4,4.1-.59,6.15-4.68.01-9.36,0-14.03.01-1.33,13.9-2.7,27.79-4.02,41.69-2.33,0-4.66,0-6.99,0,1.34-13.9,2.68-27.8,4.03-41.7-4.68-.01-9.35,0-14.03-.01.2-2.05.39-4.1.59-6.15Z"/>
  <path class="cls-1" d="m442.11,63.98c8.12.36,16.74-1.23,24.41,2.2,6.47,2.78,10.29,9.81,10.27,16.69.28,9.56-2.93,20.28-11.47,25.57-8.35,5.18-18.57,2.89-27.83,3.4,1.53-15.95,3.08-31.91,4.62-47.86Zm3.75,3.77c-1.32,13.44-2.61,26.88-3.9,40.33,7.1-.36,15.02,1.34,21.33-2.85,6.56-4.4,8.91-12.76,9.13-20.27.24-5.6-1.85-11.81-6.95-14.71-5.89-3.56-13.08-2.26-19.61-2.5Z"/>
  <path class="cls-1" d="m499.45,64.07c1.86-.07,3.73-.1,5.6-.12,4.02,15.97,8.05,31.93,12.07,47.89-1.56,0-3.11,0-4.66,0-.78-3.33-1.58-6.65-2.38-9.97-7.73-.01-15.46,0-23.19,0-1.44,3.32-2.88,6.64-4.3,9.97-1.47,0-2.93,0-4.39.02,7.05-15.94,14.31-31.79,21.25-47.78Zm2.38,3.5c-4.46,10.19-8.91,20.39-13.34,30.59,6.9.01,13.8.01,20.71,0-2.45-10.2-4.89-20.4-7.37-30.59Z"/>
  <path class="cls-1" d="m529.06,63.97c1.44.01,2.89.02,4.35.04,7.42,13.76,14.91,27.49,22.37,41.24,1.37-13.76,2.66-27.52,4.01-41.27h4.09c-1.52,15.95-3.08,31.89-4.6,47.84-1.51.01-3.02.02-4.52.03-7.46-13.55-14.89-27.12-22.35-40.68-1.31,13.55-2.63,27.1-3.92,40.66-1.36,0-2.71,0-4.05,0,1.54-15.95,3.08-31.91,4.62-47.87Z"/>
  <path class="cls-1" d="m578.88,63.97c2.22,0,4.46.01,6.7.01,2.7,14.31,5.39,28.62,8.1,42.93,5.24-14.3,10.59-28.56,15.78-42.88,2.25-.05,4.5-.06,6.77-.06.2,15.96.37,31.91.58,47.87h-4.11c-.03-14.56-.82-29.15-.16-43.69-.31.25-.92.76-1.23,1.02-4.81,14.37-10.65,28.39-15.81,42.64-1.59.01-3.18.03-4.76.04-2.85-14.66-5.7-29.32-8.52-43.99-3.03,14.64-5.95,29.3-8.91,43.96-1.38.01-2.75.02-4.11.04,3.2-15.97,6.44-31.93,9.68-47.89Z"/>
  <path class="cls-1" d="m643.29,64.05c1.85-.05,3.7-.07,5.57-.09,4.02,15.96,8.05,31.92,12.07,47.89-1.57-.01-3.12-.02-4.66-.02-.79-3.33-1.59-6.65-2.38-9.97-7.72-.01-15.44.01-23.16-.01-1.47,3.3-2.91,6.62-4.31,9.96-1.48.01-2.95.02-4.41.04,7.06-15.95,14.29-31.82,21.28-47.8Zm-11,34.11c6.91,0,13.81.01,20.72,0-2.44-10.21-4.92-20.41-7.36-30.61-4.47,10.2-8.91,20.4-13.36,30.61Z"/>
  <path class="cls-1" d="m672.87,63.98c8.02.5,16.49-1.34,24.14,1.73,5.86,2.33,7.8,9.62,5.75,15.2-1.59,5.51-6.93,8.98-12.37,9.85,3.84,7.01,7.63,14.05,11.46,21.08-1.63,0-3.25,0-4.85.01-3.64-6.84-7.37-13.63-10.93-20.52-3.91-.13-7.82-.05-11.72-.07-.67,6.86-1.34,13.71-1.99,20.57-1.38,0-2.74,0-4.1.02,1.52-15.96,3.07-31.92,4.61-47.87Zm1.82,23.72c5.96-.38,12.2.95,17.94-1.06,7-2.34,9.35-14.19,2.18-17.66-5.76-2.31-12.15-.93-18.18-1.3-.66,6.67-1.3,13.35-1.94,20.02Z"/>
  <path class="cls-1" d="m714.59,64c1.39-.01,2.78-.02,4.18-.03-.84,8.84-1.71,17.68-2.55,26.52,8.21-8.55,16.36-17.14,24.57-25.69,1.46-1.61,3.93-.51,5.83-.83-6.34,6.65-12.73,13.26-19.08,19.9,5.88,9.33,11.8,18.64,17.68,27.97-1.67,0-3.31,0-4.95-.02-5.25-8.3-10.5-16.59-15.8-24.86-2.68,2.87-5.5,5.61-8.14,8.51-.95.84-.76,2.2-.94,3.32-.38,4.35-.83,8.69-1.22,13.03-1.41.01-2.8.01-4.19.02,1.54-15.94,3.09-31.89,4.61-47.84Z"/>
</svg>